<?xml version="1.0" encoding="UTF-8" standalone="no" ?>
<!DOCTYPE svg PUBLIC "-//W3C//DTD SVG 1.1//EN" "http://www.w3.org/Graphics/SVG/1.1/DTD/svg11.dtd">
<svg xmlns="http://www.w3.org/2000/svg" xmlns:xlink="http://www.w3.org/1999/xlink" version="1.1" width="640" height="320" viewBox="0 0 640 320" xml:space="preserve">
<desc>Created with Fabric.js 3.6.6</desc>
<defs>
</defs>
<g transform="matrix(1 0 0 1 320.26 159.85)"  >
<g style=""   >
		<g transform="matrix(1.33 0 0 -1.33 -132.31 1.37)" id="layer_1"  >
<path style="stroke: none; stroke-width: 1; stroke-dasharray: none; stroke-linecap: butt; stroke-dashoffset: 0; stroke-linejoin: miter; stroke-miterlimit: 4; fill: rgb(203,0,0); fill-rule: evenodd; opacity: 1;"  transform=" translate(-321.71, -296.61)" d="M 323.85 316.5883 L 342.0998 316.4315 L 342.1392 296.8713 L 323.5445 297.2018 Z M 301.6261 316.6041 L 319.5578 316.6254 L 319.6267 296.8183 L 301.1221 296.9042 Z M 323.7959 339.6634 L 342.1301 339.4582 L 341.9926 319.968 L 323.585 320.2251 Z M 301.5607 339.6906 L 319.6032 339.6963 L 319.4067 319.9207 L 301.1865 319.985 Z M 236.7502 209.1694 C 239.7407 210.3386 241.5339 215.2137 243.5525 218.1742 C 267.7723 253.6937 306.6908 273.4815 349.8279 281.8321 C 380.7238 287.8135 383.258 284.5579 406.8102 286.8866 C 406.9284 295.0997 407.0322 303.315 407.1688 311.5281 C 407.2263 314.8889 407.1203 315.8181 404.5343 318.0645 L 372.7712 343.5925 C 366.4899 348.6773 324.7622 383.0298 321.3578 384.0446 L 299.929 367.0724 C 286.1731 356.4856 246.2939 322.8143 236.2414 316.2569 Z" stroke-linecap="round" />
</g>
		<g transform="matrix(1.33 0 0 -1.33 -132.34 -80.32)" id="layer_1"  >
<path style="stroke: none; stroke-width: 1; stroke-dasharray: none; stroke-linecap: butt; stroke-dashoffset: 0; stroke-linejoin: miter; stroke-miterlimit: 4; fill: rgb(203,0,0); fill-rule: evenodd; opacity: 1;"  transform=" translate(-321.69, -357.88)" d="M 322.3117 396.4765 L 348.1421 376.2658 C 376.522 352.3051 410.3138 327.3715 437.9992 303.7898 C 443.2218 299.3411 450.5474 299.0435 452.0741 306.7174 C 453.7003 314.8968 440.3639 322.1637 429.7377 330.8774 L 410.658 346.1581 C 407.4338 348.675 407.3502 349.1634 407.34 354.1671 C 407.3244 361.8085 407.3831 369.5108 407.4146 377.1587 C 407.4846 393.5443 408.2649 392.0006 385.3284 391.9949 C 373.8336 391.9915 376.3247 384.9083 376.1872 374.7713 C 371.1237 377.117 360.5854 386.4501 356.1769 390.0373 C 349.4514 395.5113 343.2353 400.5465 336.636 405.7994 C 319.7237 419.2608 325.1378 419.7852 294.7394 396.1449 L 196.5529 318.653 C 184.7931 309.3449 194.7124 297.0913 203.548 303.0129 C 212.8212 309.2289 270.985 356.6064 282.5116 365.4037 Z" stroke-linecap="round" />
</g>
		<g transform="matrix(1.33 0 0 -1.33 32.06 73.4)" id="layer_1"  >
<path style="stroke: none; stroke-width: 1; stroke-dasharray: none; stroke-linecap: butt; stroke-dashoffset: 0; stroke-linejoin: miter; stroke-miterlimit: 4; fill: rgb(250,2,2); fill-rule: evenodd; opacity: 1;"  transform=" translate(-444.99, -242.59)" d="M 239.2614 203.5182 C 242.1969 205.3295 250.9886 214.8619 254.8894 218.3071 C 304.2944 261.9269 351.4124 267.1597 419.701 267.1506 H 603.0218 C 608.3887 267.1506 644.9624 266.0003 648.2035 267.9965 C 650.5401 269.4365 651.8786 276.4193 649.3504 279.3467 C 645.9616 283.269 598.7307 281.0021 589.6551 280.9933 C 529.8738 280.9403 464.9978 279.8575 406.3343 281.0134 C 353.626 282.0521 302.8397 270.9295 265.0207 238.7098 C 259.4273 233.9439 241.4911 213.4242 239.2614 203.5182" stroke-linecap="round" />
</g>
		<g transform="matrix(1.33 0 0 -1.33 -147.43 -12.11)" id="layer_1"  >
<path style="stroke: none; stroke-width: 1; stroke-dasharray: none; stroke-linecap: butt; stroke-dashoffset: 0; stroke-linejoin: miter; stroke-miterlimit: 4; fill: rgb(253,253,253); fill-rule: evenodd; opacity: 1;"  transform=" translate(-310.37, -306.72)" d="M 301.1221 296.9042 L 319.6267 296.8183 L 319.5578 316.6254 L 301.6261 316.6041 Z" stroke-linecap="round" />
</g>
		<g transform="matrix(1.33 0 0 -1.33 -117.47 -12.12)" id="layer_1"  >
<path style="stroke: none; stroke-width: 1; stroke-dasharray: none; stroke-linecap: butt; stroke-dashoffset: 0; stroke-linejoin: miter; stroke-miterlimit: 4; fill: rgb(253,253,253); fill-rule: evenodd; opacity: 1;"  transform=" translate(-332.84, -306.73)" d="M 323.5445 297.2018 L 342.1392 296.8713 L 342.0998 316.4315 L 323.85 316.5883 Z" stroke-linecap="round" />
</g>
		<g transform="matrix(1.33 0 0 -1.33 -147.4 -42.89)" id="layer_1"  >
<path style="stroke: none; stroke-width: 1; stroke-dasharray: none; stroke-linecap: butt; stroke-dashoffset: 0; stroke-linejoin: miter; stroke-miterlimit: 4; fill: rgb(253,253,253); fill-rule: evenodd; opacity: 1;"  transform=" translate(-310.39, -329.81)" d="M 301.1865 319.985 L 319.4067 319.9207 L 319.6032 339.6963 L 301.5607 339.6906 Z" stroke-linecap="round" />
</g>
		<g transform="matrix(1.33 0 0 -1.33 -117.45 -42.9)" id="layer_1"  >
<path style="stroke: none; stroke-width: 1; stroke-dasharray: none; stroke-linecap: butt; stroke-dashoffset: 0; stroke-linejoin: miter; stroke-miterlimit: 4; fill: rgb(253,253,253); fill-rule: evenodd; opacity: 1;"  transform=" translate(-332.86, -329.82)" d="M 323.585 320.2251 L 341.9926 319.968 L 342.1301 339.4582 L 323.7959 339.6634 Z" stroke-linecap="round" />
</g>
		<g transform="matrix(1.33 0 0 -1.33 76.91 88.36)" id="layer_1"  >
<path style="stroke: none; stroke-width: 1; stroke-dasharray: none; stroke-linecap: butt; stroke-dashoffset: 0; stroke-linejoin: miter; stroke-miterlimit: 4; fill: rgb(251,0,0); fill-rule: nonzero; opacity: 1;"  transform=" translate(-478.62, -231.37)" d="M 327.3182 229.0649 V 218.0066 C 327.3182 217.5148 327.4078 217.1392 327.5904 216.8722 C 327.7726 216.597 328.085 216.3966 328.5264 216.2463 V 215.4453 H 320.4167 V 216.2463 C 320.8723 216.4136 321.1835 216.6222 321.359 216.8802 C 321.5341 217.1392 321.626 217.5148 321.626 218.0066 V 246.2556 C 321.626 246.7644 321.5341 247.1482 321.359 247.4073 C 321.1835 247.6664 320.8723 247.883 320.4167 248.0411 V 248.8422 H 336.6873 C 338.6696 248.8422 340.2425 248.692 341.4053 248.4 C 342.5681 248.1077 343.5817 247.5907 344.4463 246.8563 C 345.4469 246.0047 346.1947 244.8539 346.6945 243.402 C 347.1622 241.9991 347.3957 240.4979 347.3957 238.8946 C 347.3957 233.437 345.0379 230.2498 340.3261 229.3146 L 345.3755 220.127 C 346.2593 218.5166 346.909 217.4817 347.3254 217.0142 C 347.7404 216.5547 348.2402 216.2968 348.8389 216.2463 V 215.4453 H 339.4363 V 216.2463 C 340.0801 216.3804 340.4047 216.6715 340.4047 217.1231 C 340.4047 217.4142 340.1053 218.1237 339.5078 219.2502 L 334.2115 229.0649 Z M 327.3182 234.5726 H 336.0827 C 337.3767 234.5726 338.2926 234.6222 338.8258 234.7228 C 339.3578 234.8147 339.8525 235.023 340.2938 235.3314 C 341.2621 235.9996 341.7429 237.2097 341.7429 238.953 C 341.7429 240.6974 341.2621 241.9075 340.2938 242.5757 C 339.8394 242.9011 339.3516 243.1097 338.8388 243.2013 C 338.3257 243.2931 337.4028 243.3342 336.0827 243.3342 H 327.3182 Z M 357.9622 227.1121 V 220.4019 H 371.4517 C 371.8417 220.4019 372.147 220.5108 372.3548 220.7364 C 372.5631 220.9612 372.7315 221.3623 372.8546 221.9547 H 373.4005 V 213.8933 H 372.8546 C 372.7375 214.4608 372.5753 214.8608 372.3608 215.0946 C 372.147 215.3285 371.8417 215.4453 371.4517 215.4453 H 351.6463 V 216.1466 C 352.0877 216.2968 352.4 216.5054 352.5823 216.7804 C 352.7637 217.0553 352.8553 217.4485 352.8553 217.9573 V 240.3224 C 352.8553 240.8312 352.7637 241.2153 352.5883 241.4741 C 352.4119 241.7321 352.1007 241.958 351.6463 242.1332 V 242.8336 H 370.8865 C 371.2895 242.8336 371.5948 242.9504 371.8023 243.176 C 372.0172 243.402 372.1853 243.8019 372.3094 244.3864 H 372.8163 V 236.325 H 372.3094 C 372.1853 236.9174 372.0172 237.3177 371.8086 237.5433 C 371.5948 237.7681 371.2895 237.8769 370.8865 237.8769 H 357.9622 V 231.8681 H 365.9732 C 366.3632 231.8681 366.6685 231.9851 366.8771 232.2108 C 367.0846 232.4356 367.2598 232.8364 367.397 233.4209 H 367.9038 V 225.5593 H 367.397 C 367.274 226.1356 367.1048 226.5355 366.8961 226.7694 C 366.6824 226.995 366.3771 227.1121 365.9732 227.1121 Z M 392.8164 222.3054 H 382.9986 L 381.8871 219.3256 C 381.6142 218.6082 381.4841 218.0409 381.4841 217.6398 C 381.4841 216.8561 381.8931 216.3552 382.7055 216.1466 V 215.4453 H 374.8689 V 216.1466 C 375.3493 216.2463 375.7071 216.4297 375.9409 216.7058 C 376.1819 216.989 376.4548 217.531 376.7732 218.3411 L 384.5574 238.5692 C 384.8496 239.3289 384.9928 239.997 384.9928 240.5724 C 384.9928 241.2405 384.6421 241.7573 383.9267 242.1332 V 242.8336 H 392.2118 V 242.1332 C 391.5164 241.7746 391.1658 241.2232 391.1658 240.4726 C 391.1658 239.9386 391.322 239.2784 391.6403 238.4946 L 399.7168 218.8834 C 400.159 217.8153 400.5099 217.1231 400.7636 216.8135 C 401.0168 216.4963 401.4065 216.2795 401.9267 216.1466 V 215.4453 H 393.2314 V 216.1466 C 394.0637 216.322 394.4801 216.8218 394.4801 217.6319 C 394.4801 218.1328 394.3168 218.7584 394.0053 219.509 Z M 391.2695 226.1608 L 387.7801 234.9567 L 384.4596 226.1608 Z M 410.0292 220.4019 H 421.973 C 422.382 220.4019 422.6873 220.5108 422.8889 220.7364 C 423.0904 220.9612 423.2659 221.3623 423.4028 221.9547 H 423.9096 V 213.8933 H 423.4028 C 423.2718 214.4769 423.1097 214.878 422.896 215.1026 C 422.6873 215.3285 422.382 215.4453 421.973 215.4453 H 403.7131 V 216.1466 C 404.1556 216.2968 404.4679 216.5054 404.6494 216.7804 C 404.8316 217.0553 404.9223 217.4485 404.9223 217.9573 V 240.3224 C 404.9223 240.8312 404.8316 241.2153 404.6564 241.4741 C 404.4801 241.7321 404.1686 241.958 403.7131 242.1332 V 242.8336 H 411.2385 V 242.1332 C 410.7838 241.9739 410.4714 241.7573 410.2951 241.4823 C 410.1208 241.2153 410.0292 240.8312 410.0292 240.3224 Z M 442.1616 226.711 V 217.9735 C 442.1616 217.4726 442.2532 217.0888 442.4275 216.8135 C 442.6038 216.5465 442.9162 216.322 443.3709 216.1466 V 215.4453 H 435.8455 V 216.1466 C 436.288 216.2968 436.6003 216.5054 436.7818 216.7804 C 436.964 217.0553 437.0547 217.4485 437.0547 217.9573 V 240.3224 C 437.0547 240.8312 436.964 241.2153 436.7877 241.4741 C 436.6123 241.7321 436.301 241.958 435.8455 242.1332 V 242.8336 H 449.7514 C 452.5132 242.8336 454.5862 242.3086 455.9828 241.2485 C 456.7949 240.6308 457.4316 239.7461 457.8871 238.6114 C 458.3486 237.4676 458.5754 236.1909 458.5754 234.7722 C 458.5754 232.0526 457.854 230.0321 456.4049 228.706 C 454.9569 227.3791 452.734 226.711 449.7514 226.711 Z M 442.1616 231.6685 H 449.4591 C 450.7911 231.6685 451.7203 231.8349 452.2462 232.1603 C 453.007 232.628 453.3911 233.5045 453.3911 234.7722 C 453.3911 236.0409 453.007 236.9174 452.2462 237.3851 C 451.7334 237.7094 450.8042 237.8769 449.4591 237.8769 H 442.1616 Z M 467.5759 226.711 V 217.9735 C 467.5759 217.4726 467.6666 217.0888 467.8418 216.8135 C 468.0173 216.5465 468.3297 216.322 468.7841 216.1466 V 215.4453 H 461.2598 V 216.1466 C 461.7011 216.2968 462.0135 216.5054 462.1961 216.7804 C 462.3772 217.0553 462.469 217.4485 462.469 217.9573 V 240.3224 C 462.469 240.8312 462.3772 241.2153 462.202 241.4741 C 462.0257 241.7321 461.7142 241.958 461.2598 242.1332 V 242.8336 H 475.2502 C 477.0621 242.8336 478.4465 242.7165 479.4018 242.4838 C 480.3571 242.2409 481.2086 241.8157 481.9552 241.198 C 483.4959 239.9134 484.2618 237.8103 484.2618 234.8983 C 484.2618 232.6864 483.7881 230.9593 482.8399 229.7066 C 481.8969 228.4634 480.363 227.5625 478.2521 227.0112 L 482.313 219.7843 C 483.0537 218.4491 483.6441 217.5401 484.0875 217.0644 C 484.5217 216.58 485.0286 216.2795 485.5878 216.1466 V 215.4453 H 476.6014 V 216.1466 C 477.2645 216.3713 477.595 216.739 477.595 217.2478 C 477.595 217.5987 477.3934 218.1487 476.9844 218.8752 L 472.7018 226.711 Z M 467.5759 231.6685 H 475.2955 C 476.4645 231.6685 477.3351 231.8349 477.8943 232.1603 C 478.6804 232.5946 479.0764 233.4702 479.0764 234.7722 C 479.0764 235.9321 478.7972 236.734 478.245 237.1927 C 477.6928 237.6522 476.7052 237.8769 475.2955 237.8769 H 467.5759 Z M 499.551 243.4351 C 502.9367 243.4351 505.7563 242.3248 508.0175 240.1047 C 510.7221 237.4265 512.0722 233.7041 512.0722 228.9229 C 512.0722 224.4325 510.7221 220.8535 508.0175 218.1739 C 505.7824 215.9541 502.9761 214.8446 499.5904 214.8446 C 496.1985 214.8446 493.3911 215.9541 491.1551 218.1739 C 488.4406 220.8535 487.0823 224.5082 487.0823 229.1394 C 487.0823 233.8209 488.4406 237.4767 491.1551 240.1047 C 493.4044 242.2752 496.1985 243.3847 499.551 243.4351 Z M 499.5703 238.2276 C 497.3683 238.2276 495.5749 237.3267 494.1901 235.5148 C 492.9106 233.8209 492.2677 231.6929 492.2677 229.1394 C 492.2677 226.603 492.9106 224.483 494.1901 222.789 C 495.5749 220.9612 497.3746 220.0513 499.5904 220.0513 C 501.7861 220.0513 503.5796 220.9612 504.9641 222.789 C 506.2439 224.466 506.8868 226.5446 506.8868 229.0144 C 506.8868 231.702 506.2439 233.8713 504.9641 235.5148 C 503.5666 237.2924 501.7669 238.1941 499.5703 238.2276 Z M 521.657 226.711 V 217.9735 C 521.657 217.4726 521.7489 217.0888 521.9232 216.8135 C 522.0995 216.5465 522.4119 216.322 522.8654 216.1466 V 215.4453 H 515.3411 V 216.1466 C 515.7833 216.2968 516.0957 216.5054 516.2771 216.7804 C 516.4597 217.0553 516.5504 217.4485 516.5504 217.9573 V 240.3224 C 516.5504 240.8312 516.4597 241.2153 516.2834 241.4741 C 516.1079 241.7321 515.7967 241.958 515.3411 242.1332 V 242.8336 H 529.2468 C 532.0089 242.8336 534.0807 242.3086 535.4782 241.2485 C 536.2903 240.6308 536.9272 239.7461 537.3828 238.6114 C 537.8443 237.4676 538.071 236.1909 538.071 234.7722 C 538.071 232.0526 537.3496 230.0321 535.9005 228.706 C 534.4526 227.3791 532.2297 226.711 529.2468 226.711 Z M 521.657 231.6685 H 528.9545 C 530.2868 231.6685 531.2157 231.8349 531.7418 232.1603 C 532.5026 232.628 532.8865 233.5045 532.8865 234.7722 C 532.8865 236.0409 532.5026 236.9174 531.7418 237.3851 C 531.229 237.7094 530.2998 237.8769 528.9545 237.8769 H 521.657 Z M 547.0713 227.1121 V 220.4019 H 560.5611 C 560.9509 220.4019 561.2564 220.5108 561.4639 220.7364 C 561.6726 220.9612 561.8407 221.3623 561.9637 221.9547 H 562.5099 V 213.8933 H 561.9637 C 561.8469 214.4608 561.6845 214.8608 561.4699 215.0946 C 561.2564 215.3285 560.9509 215.4453 560.5611 215.4453 H 540.7554 V 216.1466 C 541.1968 216.2968 541.5092 216.5054 541.6914 216.7804 C 541.8729 217.0553 541.9647 217.4485 541.9647 217.9573 V 240.3224 C 541.9647 240.8312 541.8729 241.2153 541.6977 241.4741 C 541.5214 241.7321 541.2098 241.958 540.7554 242.1332 V 242.8336 H 559.9956 C 560.3987 242.8336 560.704 242.9504 560.9117 243.176 C 561.1263 243.402 561.2947 243.8019 561.4186 244.3864 H 561.9254 V 236.325 H 561.4186 C 561.2947 236.9174 561.1263 237.3177 560.9177 237.5433 C 560.704 237.7681 560.3987 237.8769 559.9956 237.8769 H 547.0713 V 231.8681 H 555.0823 C 555.4723 231.8681 555.7776 231.9851 555.9863 232.2108 C 556.1938 232.4356 556.3692 232.8364 556.5061 233.4209 H 557.013 V 225.5593 H 556.5061 C 556.3831 226.1356 556.2139 226.5355 556.0053 226.7694 C 555.7918 226.995 555.4865 227.1121 555.0823 227.1121 Z M 572.0876 226.711 V 217.9735 C 572.0876 217.4726 572.1783 217.0888 572.3538 216.8135 C 572.529 216.5465 572.8414 216.322 573.2957 216.1466 V 215.4453 H 565.7717 V 216.1466 C 566.2131 216.2968 566.5255 216.5054 566.7077 216.7804 C 566.89 217.0553 566.9807 217.4485 566.9807 217.9573 V 240.3224 C 566.9807 240.8312 566.89 241.2153 566.7137 241.4741 C 566.5385 241.7321 566.227 241.958 565.7717 242.1332 V 242.8336 H 579.7621 C 581.5749 242.8336 582.9585 242.7165 583.9146 242.4838 C 584.8688 242.2409 585.7203 241.8157 586.4669 241.198 C 588.0078 239.9134 588.7746 237.8103 588.7746 234.8983 C 588.7746 232.6864 588.3001 230.9593 587.3519 229.7066 C 586.4097 228.4634 584.875 227.5625 582.7637 227.0112 L 586.8247 219.7843 C 587.5654 218.4491 588.1569 217.5401 588.5991 217.0644 C 589.0337 216.58 589.5405 216.2795 590.0998 216.1466 V 215.4453 H 581.1134 V 216.1466 C 581.7764 216.3713 582.107 216.739 582.107 217.2478 C 582.107 217.5987 581.9054 218.1487 581.4972 218.8752 L 577.2146 226.711 Z M 572.0876 231.6685 H 579.8075 C 580.9762 231.6685 581.8479 231.8349 582.4063 232.1603 C 583.1921 232.5946 583.5881 233.4702 583.5881 234.7722 C 583.5881 235.9321 583.3091 236.734 582.7569 237.1927 C 582.2048 237.6522 581.2172 237.8769 579.8075 237.8769 H 572.0876 Z M 604.5194 237.8769 V 217.9735 C 604.5194 217.4726 604.6089 217.0888 604.7853 216.8135 C 604.9607 216.5465 605.272 216.322 605.7275 216.1466 V 215.4453 H 598.2032 V 216.1466 C 598.6446 216.2968 598.9561 216.5054 599.1384 216.7804 C 599.3198 217.0553 599.4116 217.4485 599.4116 217.9573 V 237.8769 H 593.1207 C 592.7125 237.8769 592.4061 237.7599 592.1986 237.5354 C 591.984 237.3015 591.8219 236.9004 591.6917 236.325 H 591.1849 V 244.3864 H 591.6917 C 591.8085 243.8189 591.9718 243.4181 592.1796 243.1843 C 592.3871 242.9504 592.6983 242.8336 593.1026 242.8336 H 610.808 C 611.2123 242.8336 611.5235 242.9504 611.7313 243.176 C 611.9459 243.402 612.108 243.8019 612.2381 244.3864 H 612.7449 V 236.325 H 612.2381 C 612.108 236.9004 611.9459 237.3015 611.7313 237.5354 C 611.5235 237.7599 611.2182 237.8769 610.808 237.8769 Z M 627.2804 227.4375 V 217.9321 C 627.2804 217.4233 627.372 217.0395 627.5463 216.7724 C 627.7229 216.4963 628.0342 216.2795 628.4886 216.0961 V 215.4453 H 620.9643 V 216.0961 C 621.4198 216.2633 621.7313 216.472 621.9065 216.7472 C 622.0828 217.0142 622.1727 217.4063 622.1727 217.9321 V 227.4375 L 615.8443 238.6114 C 615.1289 239.8629 614.5648 240.7306 614.1353 241.1901 C 613.7133 241.6575 613.2064 241.9659 612.6211 242.1332 V 242.8336 H 622.2319 V 242.1332 C 621.4056 241.8571 620.9966 241.3573 620.9966 240.6387 C 620.9966 240.2802 621.2959 239.5627 621.8935 238.4864 L 625.0133 232.8868 L 628.0926 238.4864 C 628.6842 239.5797 628.9835 240.3054 628.9835 240.664 C 628.9835 241.3483 628.5804 241.8409 627.7683 242.1332 L 627.7479 242.8336 H 636.8321 V 242.1332 C 636.2476 241.9659 635.7407 241.6575 635.3186 241.1901 C 634.8903 240.7306 634.324 239.8629 633.6096 238.6114 Z" stroke-linecap="round" />
</g>
		<g transform="matrix(1.33 0 0 -1.33 172.93 138.76)" id="layer_1"  >
<path style="stroke: none; stroke-width: 1; stroke-dasharray: none; stroke-linecap: butt; stroke-dashoffset: 0; stroke-linejoin: miter; stroke-miterlimit: 4; fill: rgb(0,0,0); fill-rule: nonzero; opacity: 1;"  transform=" translate(-550.64, -193.57)" d="M 489.3171 204.4003 L 486.6418 198.4833 L 486.1823 198.7784 C 486.1933 198.8983 486.1984 198.9992 486.1984 199.0738 C 486.1984 199.4888 485.8801 199.9423 485.2451 200.4199 C 483.2943 201.9416 481.0051 202.7024 478.3751 202.7024 C 477.214 202.7024 476.1873 202.5451 475.2955 202.2248 C 474.6506 201.9728 474.1288 201.6079 473.7257 201.1113 C 473.3277 200.6215 473.125 200.0863 473.125 199.508 C 473.125 198.5587 473.635 197.911 474.6506 197.5714 C 475.1776 197.3951 476.3052 197.2125 478.0383 197.0121 L 480.619 196.7159 C 482.1497 196.5334 483.3952 196.2825 484.3434 195.961 C 485.2905 195.6407 486.1259 195.1943 486.8614 194.6157 C 487.6072 194.0122 488.1957 193.2191 488.628 192.2389 C 489.0591 191.2513 489.278 190.2013 489.278 189.0816 C 489.278 187.3142 488.768 185.7362 487.7532 184.3588 C 486.8334 183.1073 485.4025 182.1773 483.4627 181.5797 C 482.0156 181.1203 480.4668 180.8943 478.8122 180.8943 C 475.8457 180.8943 472.9175 181.6926 470.0234 183.2837 C 469.4119 183.604 469.0471 183.7613 468.9241 183.7613 C 468.7841 183.7613 468.5593 183.6232 468.2509 183.3593 L 467.7744 183.6292 L 470.2088 189.7982 L 470.6855 189.5411 C 470.6855 189.4334 470.6855 189.3518 470.6855 189.3013 C 470.6855 188.7483 470.9214 188.2395 471.3868 187.7737 C 472.0983 187.0634 473.2036 186.4466 474.6909 185.9306 C 476.1822 185.4159 477.595 185.1579 478.9301 185.1579 C 480.3883 185.1579 481.6338 185.434 482.6597 185.9882 C 483.232 186.2955 483.6875 186.7048 484.0228 187.2145 C 484.3655 187.7233 484.5339 188.2573 484.5339 188.8118 C 484.5339 189.648 484.1357 190.2455 483.3326 190.6033 C 482.7725 190.849 481.6449 191.075 479.946 191.2825 L 477.4096 191.5787 C 475.7168 191.7794 474.5106 191.9676 473.8093 192.1439 C 473.1089 192.3202 472.4076 192.6096 471.7063 193.0056 C 470.7077 193.5587 469.9227 194.3892 469.3564 195.4956 C 468.8393 196.4962 468.5814 197.6409 468.5814 198.9298 C 468.5814 201.0609 469.2325 202.8223 470.5393 204.2118 C 472.2503 206.0478 474.819 206.9657 478.2461 206.9657 C 479.6759 206.9657 481.017 206.8024 482.2503 206.4762 C 483.4899 206.1485 485.0325 205.5509 486.8887 204.6773 C 487.5225 204.3941 487.9106 204.2561 488.0557 204.2561 C 488.2853 204.2561 488.5495 204.3941 488.8576 204.6773 Z M 502.6385 202.4382 C 505.5608 202.4382 507.9951 201.602 509.946 199.9293 C 512.2809 197.911 513.4467 195.1067 513.4467 191.5033 C 513.4467 188.1193 512.2809 185.4218 509.946 183.4036 C 508.0175 181.7308 505.5951 180.8943 502.6717 180.8943 C 499.7446 180.8943 497.3221 181.7308 495.3923 183.4036 C 493.0475 185.4218 491.8757 188.176 491.8757 191.6663 C 491.8757 195.1943 493.0475 197.9481 495.3923 199.9293 C 497.3321 201.5646 499.7446 202.4011 502.6385 202.4382 Z M 502.6555 198.5145 C 500.754 198.5145 499.2063 197.8353 498.0112 196.471 C 496.9069 195.1943 496.3507 193.591 496.3507 191.6663 C 496.3507 189.7549 496.9069 188.1578 498.0112 186.8811 C 499.2063 185.5035 500.7591 184.8183 502.6717 184.8183 C 504.5681 184.8183 506.1161 185.5035 507.31 186.8811 C 508.4155 188.1445 508.9717 189.7106 508.9717 191.5716 C 508.9717 193.5969 508.4155 195.2314 507.31 196.471 C 506.105 197.8101 504.5511 198.4893 502.6555 198.5145 Z M 521.7185 185.0822 H 532.029 C 532.3816 185.0822 532.6447 185.1639 532.819 185.3342 C 532.9933 185.5035 533.1436 185.8059 533.2623 186.2521 H 533.6997 V 180.1769 H 533.2623 C 533.1506 180.6174 533.0106 180.9196 532.8249 181.0891 C 532.6447 181.2591 532.3816 181.347 532.029 181.347 H 516.2672 V 181.8748 C 516.649 181.9888 516.918 182.1461 517.0754 182.3536 C 517.2324 182.5603 517.3112 182.8565 517.3112 183.2394 V 200.0925 C 517.3112 200.4763 517.2324 200.7655 517.0805 200.9611 C 516.9291 201.1555 516.6601 201.3259 516.2672 201.458 V 201.9858 H 522.7625 V 201.458 C 522.3696 201.3381 522.1015 201.1748 521.9493 200.967 C 521.7982 200.7655 521.7185 200.4763 521.7185 200.0925 Z M 554.8728 200.0925 V 189.1695 C 554.8728 186.6733 554.4354 184.8436 553.5598 183.6737 C 552.147 181.8184 549.4819 180.8943 545.5791 180.8943 C 542.9602 180.8943 540.845 181.3408 539.2358 182.2397 C 538.0741 182.8877 537.2841 183.8188 536.8518 185.0199 C 536.4598 186.1262 536.2622 187.5098 536.2622 189.1695 V 200.0925 C 536.2622 200.4763 536.1846 200.7655 536.0323 200.9611 C 535.8813 201.1555 535.6123 201.3259 535.2194 201.458 V 201.9858 H 541.7147 V 201.458 C 541.3167 201.3381 541.0466 201.1748 540.8955 200.967 C 540.7432 200.7655 540.6707 200.4763 540.6707 200.0925 V 190.1761 C 540.6707 189.0193 540.7605 188.1386 540.9408 187.5217 C 541.1203 186.9123 541.4335 186.4094 541.8819 186.0134 C 542.7797 185.2143 544.0757 184.8183 545.7696 184.8183 C 547.4633 184.8183 548.7582 185.2143 549.6562 186.0134 C 550.0885 186.4094 550.3966 186.9123 550.571 187.5217 C 550.7453 188.1386 550.834 189.0193 550.834 190.1761 V 200.0925 C 550.834 200.4763 550.7614 200.7655 550.6155 200.9611 C 550.4703 201.1555 550.1951 201.3259 549.7911 201.458 V 201.9858 H 555.9157 V 201.458 C 555.5237 201.3318 555.2538 201.1748 555.1024 200.967 C 554.9513 200.7655 554.8728 200.4763 554.8728 200.0925 Z M 568.9891 198.2506 V 183.2525 C 568.9891 182.8746 569.0687 182.5852 569.2198 182.3777 C 569.3709 182.1773 569.6402 182.0069 570.0331 181.8748 V 181.347 H 563.5378 V 181.8748 C 563.9196 181.9888 564.1886 182.1461 564.3459 182.3536 C 564.503 182.5603 564.5806 182.8565 564.5806 183.2394 V 198.2506 H 559.1514 C 558.7985 198.2506 558.5357 198.1627 558.3552 197.9926 C 558.1709 197.816 558.0298 197.515 557.9178 197.0804 H 557.4807 V 203.1557 H 557.9178 C 558.0196 202.7276 558.1599 202.4263 558.3382 202.25 C 558.5185 202.0737 558.7875 201.9858 559.1353 201.9858 H 574.4186 C 574.7661 201.9858 575.0362 202.0737 575.2154 202.2437 C 575.3999 202.4133 575.5399 202.7154 575.6528 203.1557 H 576.0901 V 197.0804 H 575.6528 C 575.5399 197.515 575.3999 197.816 575.2154 197.9926 C 575.0362 198.1627 574.7732 198.2506 574.4186 198.2506 Z M 583.4208 200.0996 V 183.2525 C 583.4208 182.8746 583.4993 182.5852 583.6507 182.3777 C 583.8026 182.1773 584.0708 182.0069 584.4637 181.8748 V 181.347 H 577.9684 V 181.8748 C 578.3502 181.9888 578.6195 182.1461 578.7765 182.3536 C 578.9339 182.5603 579.0124 182.8565 579.0124 183.2394 V 200.0925 C 579.0124 200.4763 578.9339 200.7655 578.7825 200.9611 C 578.6314 201.1555 578.3613 201.3259 577.9684 201.458 V 201.9858 H 584.4637 V 201.458 C 584.0708 201.3381 583.8026 201.1748 583.6507 200.9733 C 583.4993 200.7655 583.4208 200.4763 583.4208 200.0996 Z M 598.0714 202.4382 C 600.9925 202.4382 603.4269 201.602 605.3788 199.9293 C 607.7126 197.911 608.8796 195.1067 608.8796 191.5033 C 608.8796 188.1193 607.7126 185.4218 605.3788 183.4036 C 603.4501 181.7308 601.0268 180.8943 598.1046 180.8943 C 595.1772 180.8943 592.7539 181.7308 590.8241 183.4036 C 588.4792 185.4218 587.3074 188.176 587.3074 191.6663 C 587.3074 195.1943 588.4792 197.9481 590.8241 199.9293 C 592.7649 201.5646 595.1772 202.4011 598.0714 202.4382 Z M 598.0884 198.5145 C 596.1861 198.5145 594.6381 197.8353 593.443 196.471 C 592.3386 195.1943 591.7836 193.591 591.7836 191.6663 C 591.7836 189.7549 592.3386 188.1578 593.443 186.8811 C 594.6381 185.5035 596.192 184.8183 598.1046 184.8183 C 600.0009 184.8183 601.5478 185.5035 602.7429 186.8811 C 603.8481 188.1445 604.4034 189.7106 604.4034 191.5716 C 604.4034 193.5969 603.8481 195.2314 602.7429 196.471 C 601.5376 197.8101 599.9839 198.4893 598.0884 198.5145 Z M 616.7475 194.9423 V 183.2525 C 616.7475 182.8746 616.826 182.5792 616.983 182.3717 C 617.1403 182.1643 617.4094 182.001 617.7912 181.8748 V 181.347 H 611.6998 V 181.8748 C 612.0819 181.9888 612.3498 182.1461 612.5071 182.3536 C 612.6653 182.5603 612.743 182.8565 612.743 183.2394 V 200.0925 C 612.743 200.4763 612.6653 200.7655 612.5131 200.9611 C 612.362 201.1555 612.0918 201.3259 611.6998 201.458 V 201.9858 H 618.7606 V 201.458 C 618.279 201.3259 618.0372 201.0861 618.0372 200.7405 C 618.0372 200.4452 618.2116 200.0996 618.565 199.7096 L 628.4585 188.742 V 200.0925 C 628.4585 200.4763 628.3797 200.7655 628.2298 200.967 C 628.0775 201.1748 627.8085 201.3381 627.4154 201.458 V 201.9858 H 633.5067 V 201.458 C 633.1139 201.3381 632.8449 201.1748 632.6935 200.9733 C 632.5424 200.7655 632.4627 200.4763 632.4627 200.0996 V 183.2525 C 632.4627 182.8746 632.5424 182.5852 632.6935 182.3777 C 632.8449 182.1773 633.1139 182.0069 633.5067 181.8748 V 181.347 H 626.9216 V 181.8748 C 627.4043 181.9817 627.6461 182.2085 627.6461 182.5481 C 627.6461 182.7244 627.5786 182.8998 627.4488 183.0821 C 627.3147 183.2644 627.0174 183.6232 626.546 184.1584 Z" stroke-linecap="round" />
</g>
</g>
</g>
</svg>